<svg width="100" height="100" viewBox="0 0 100 100" fill="none" xmlns="http://www.w3.org/2000/svg">
<path d="M71.1274 62.6218C71.1274 59.7345 70.5747 57.0164 69.4694 54.4674C68.364 51.9184 66.8423 49.6685 64.9043 47.7177C62.9666 45.7667 60.7231 44.2384 58.1738 43.1331C55.6248 42.0277 52.9067 41.475 50.0194 41.475C47.1062 41.475 44.3752 42.0277 41.8262 43.1331C39.2769 44.2384 37.0334 45.7667 35.0956 47.7177C33.1577 49.6685 31.6361 51.9184 30.5306 54.4674C29.4251 57.0164 28.8724 59.7345 28.8724 62.6218C28.8724 64.0524 29.0155 65.4376 29.3016 66.7774C29.5877 68.1169 30.0039 69.3979 30.5501 70.6205H69.4498C69.9961 69.3979 70.4123 68.1169 70.6983 66.7774C70.9844 65.4376 71.1274 64.0524 71.1274 62.6218ZM8.46663 64.846H18.0647C19.0792 64.846 19.918 64.5404 20.5814 63.9291C21.2446 63.3178 21.5763 62.57 21.5763 61.6857C21.5502 60.8273 21.2121 60.0859 20.5618 59.4615C19.9115 58.8372 19.0792 58.525 18.0647 58.525H8.46663C7.45219 58.525 6.61984 58.8372 5.96956 59.4615C5.31928 60.0859 4.99414 60.8273 4.99414 61.6857C4.99414 62.57 5.31928 63.3178 5.96956 63.9291C6.61984 64.5404 7.45219 64.846 8.46663 64.846ZM25.1658 42.3332C25.8681 43.0614 26.681 43.4386 27.6044 43.4647C28.5278 43.4908 29.2886 43.1917 29.8868 42.5673C30.4851 41.943 30.7777 41.1756 30.7647 40.2652C30.7517 39.3549 30.3811 38.5486 29.6528 37.8463L22.8638 31.0574C22.1355 30.3291 21.3292 29.9649 20.4448 29.9649C19.5604 29.9649 18.8061 30.264 18.1818 30.8623C17.5575 31.4606 17.2519 32.2084 17.2649 33.1057C17.2779 34.0031 17.6486 34.816 18.3769 35.5443L25.1658 42.3332ZM70.113 42.5673C70.7374 43.1656 71.5047 43.4582 72.4151 43.4451C73.3255 43.4321 74.1319 43.0614 74.8343 42.3332L81.6231 35.5443C82.3513 34.816 82.722 34.0097 82.735 33.1253C82.7481 32.2409 82.4424 31.4865 81.8181 30.8623C81.2199 30.238 80.4721 29.9324 79.5747 29.9454C78.6774 29.9584 77.8645 30.3291 77.136 31.0574L70.3471 37.8463C69.6189 38.5486 69.2418 39.3614 69.2157 40.2848C69.1898 41.2083 69.4889 41.9691 70.113 42.5673ZM81.9352 64.846H91.5335C92.5478 64.846 93.3801 64.5404 94.0306 63.9291C94.6808 63.3178 95.0058 62.57 95.0058 61.6857C95.0058 60.8273 94.6808 60.0859 94.0306 59.4615C93.3801 58.8372 92.5478 58.525 91.5335 58.525H81.9352C80.9467 58.525 80.1144 58.8372 79.4381 59.4615C78.7618 60.0859 78.4237 60.8273 78.4237 61.6857C78.4498 62.57 78.7944 63.3178 79.4577 63.9291C80.1209 64.5404 80.9467 64.846 81.9352 64.846Z" fill="#FFCC00"/>
<path d="M3.39446 81.4282H96.6056C97.516 81.4282 98.3093 81.1225 98.9856 80.5112C99.6619 79.9 100 79.1651 100 78.3066C100 77.4482 99.6619 76.7134 98.9856 76.1024C98.3093 75.4911 97.516 75.1855 96.6056 75.1855H3.39446C2.48407 75.1855 1.69073 75.4911 1.01444 76.1024C0.338145 76.7134 0 77.4482 0 78.3066C0 79.1651 0.338145 79.9 1.01444 80.5112C1.69073 81.1225 2.48407 81.4282 3.39446 81.4282ZM50.0194 0C49.1351 0 48.3808 0.338145 47.7564 1.01444C47.1324 1.69073 46.8203 2.51008 46.8203 3.47249V18.0647L47.2882 23.9563L44.7911 21.03L39.524 15.7238C39.2379 15.4376 38.9127 15.2165 38.5486 15.0605C38.1844 14.9044 37.8203 14.8264 37.4561 14.8264C36.6758 14.8264 36.032 15.067 35.5248 15.5482C35.0175 16.0294 34.7639 16.6602 34.7639 17.4405C34.7639 17.8567 34.842 18.2273 34.9981 18.5525C35.1541 18.8776 35.3882 19.1832 35.7004 19.4694L47.8735 30.8232C48.6278 31.4995 49.3431 31.8377 50.0194 31.8377C50.6698 31.8377 51.3722 31.4995 52.1265 30.8232L64.2998 19.4694C64.6117 19.1832 64.8457 18.8776 65.0018 18.5525C65.1579 18.2273 65.2359 17.8567 65.2359 17.4405C65.2359 16.6602 64.9824 16.0294 64.4752 15.5482C63.9681 15.067 63.3243 14.8264 62.5439 14.8264C62.1798 14.8264 61.8157 14.9044 61.4516 15.0605C61.0872 15.2165 60.762 15.4376 60.4759 15.7238L55.5988 20.6399L52.7118 23.9563L53.1797 18.0647V3.47249C53.1797 2.51008 52.8676 1.69073 52.2436 1.01444C51.6192 0.338145 50.8778 0 50.0194 0Z" fill="white"/>
</svg>
