<svg width="100" height="118" viewBox="0 0 100 118" fill="none" xmlns="http://www.w3.org/2000/svg">
<path d="M49.9999 108.473C56.9036 108.473 63.3803 107.174 69.43 104.576C75.4794 101.979 80.7966 98.3871 85.3818 93.8019C89.9669 89.2171 93.5495 83.9086 96.1295 77.8764C98.7098 71.8445 100 65.3767 100 58.4729C100 51.569 98.7098 45.0924 96.1295 39.0428C93.5495 32.9933 89.9669 27.676 85.3818 23.091C80.7966 18.5059 75.4794 14.9145 69.43 12.3169C63.3803 9.71931 56.9036 8.42051 49.9999 8.42051C43.0962 8.42051 36.6282 9.71931 30.5962 12.3169C24.5641 14.9145 19.2556 18.5059 14.6705 23.091C10.0854 27.676 6.49407 32.9933 3.89644 39.0428C1.29881 45.0924 0 51.569 0 58.4729C0 65.3767 1.29881 71.8445 3.89644 77.8764C6.49407 83.9086 10.0854 89.2171 14.6705 93.8019C19.2556 98.3871 24.5641 101.979 30.5962 104.576C36.6282 107.174 43.0962 108.473 49.9999 108.473ZM26.2029 64.2259C25.1918 64.2259 24.3375 63.8773 23.6401 63.18C22.9428 62.4827 22.5941 61.6284 22.5941 60.6173C22.5941 59.5712 22.9428 58.6994 23.6401 58.0021C24.3375 57.3048 25.1918 56.9562 26.2029 56.9562H46.3388V28.9226C46.3388 27.8765 46.6875 27.0048 47.3849 26.3075C48.0822 25.6102 48.9365 25.2615 49.9476 25.2615C50.9936 25.2615 51.8653 25.6102 52.5627 26.3075C53.2602 27.0048 53.6089 27.8765 53.6089 28.9226V60.6173C53.6089 61.6284 53.2602 62.4827 52.5627 63.18C51.8653 63.8773 50.9936 64.2259 49.9476 64.2259H26.2029ZM7.06066 21.8619C7.4442 21.8619 7.79287 21.8183 8.10667 21.7312C8.42048 21.644 8.76915 21.4609 9.15268 21.182L26.6736 7.94981C27.5453 7.28731 27.9811 6.50278 27.9811 5.59622C27.9811 4.58507 27.5104 3.64365 26.569 2.77196C25.5578 1.86541 24.2503 1.17678 22.6464 0.706066C21.0425 0.235355 19.456 0 17.887 0C15.1673 0 12.6917 0.662482 10.4602 1.98745C8.22869 3.31241 6.45918 5.08193 5.15167 7.29599C3.84414 9.51008 3.19037 11.977 3.19037 14.6966C3.19037 15.6729 3.26882 16.6143 3.42573 17.5209C3.58263 18.4274 3.80055 19.1771 4.07949 19.7699C4.35843 20.4323 4.75941 20.9466 5.28242 21.3127C5.80542 21.6788 6.39817 21.8619 7.06066 21.8619ZM92.9391 21.8619C93.6018 21.8619 94.1945 21.6701 94.7172 21.2866C95.2403 20.9031 95.6587 20.3975 95.9726 19.7699C96.2514 19.212 96.4606 18.4711 96.6002 17.5471C96.7398 16.6231 96.8096 15.6729 96.8096 14.6966C96.8096 11.977 96.1559 9.51008 94.8484 7.29599C93.5409 5.08193 91.7714 3.31241 89.5399 1.98745C87.3084 0.662482 84.8326 0 82.1127 0C80.5438 0 78.9575 0.235355 77.3537 0.706066C75.7495 1.17678 74.4418 1.86541 73.4307 2.77196C72.4895 3.64365 72.0189 4.58507 72.0189 5.59622C72.0189 6.50278 72.4722 7.28731 73.3787 7.94981L90.8472 21.182C91.2307 21.4609 91.5793 21.644 91.8932 21.7312C92.207 21.8183 92.5557 21.8619 92.9391 21.8619ZM6.27617 106.956C7.04324 107.758 7.99337 108.159 9.12655 108.159C10.2597 108.159 11.2273 107.74 12.0293 106.903L21.9142 97.071L16.2657 91.4749L6.32844 101.307C5.52649 102.109 5.12551 103.068 5.12551 104.184C5.12551 105.3 5.50907 106.224 6.27617 106.956ZM93.7237 106.956C94.4907 106.224 94.8829 105.3 94.9004 104.184C94.9179 103.068 94.5081 102.109 93.6712 101.307L83.7344 91.4749L78.1377 97.071L87.9707 106.903C88.7726 107.74 89.7402 108.159 90.8735 108.159C92.0067 108.159 92.9568 107.758 93.7237 106.956Z" fill="black" fill-opacity="0.85"/>
</svg>
