<svg width="11" height="18" viewBox="0 0 11 18" fill="none" xmlns="http://www.w3.org/2000/svg">
<g clip-path="url(#clip0_38_10)">
<path d="M10.4717 8.62304C10.4717 8.49935 10.4473 8.38379 10.3984 8.27636C10.3496 8.16894 10.2796 8.06966 10.1885 7.97851L2.4541 0.40039C2.27832 0.23112 2.06348 0.146484 1.80957 0.146484C1.64681 0.146484 1.49707 0.185547 1.36035 0.263672C1.22363 0.341797 1.11621 0.447591 1.03809 0.581054C0.959961 0.714518 0.920898 0.865886 0.920898 1.03516C0.920898 1.27604 1.00553 1.48763 1.1748 1.66992L8.28418 8.62304L1.1748 15.5762C1.00553 15.7585 0.920898 15.9701 0.920898 16.211C0.920898 16.3803 0.959961 16.5316 1.03809 16.6651C1.11621 16.7986 1.22363 16.9043 1.36035 16.9824C1.49707 17.0605 1.64681 17.0996 1.80957 17.0996C2.06348 17.0996 2.27832 17.0117 2.4541 16.836L10.1885 9.26757C10.2796 9.17643 10.3496 9.07715 10.3984 8.96972C10.4473 8.8623 10.4717 8.74674 10.4717 8.62304Z" fill="black" fill-opacity="0.85"/>
</g>
<defs>
<clipPath id="clip0_38_10">
<rect width="9.55078" height="16.9629" fill="white" transform="translate(0.920898 0.146484)"/>
</clipPath>
</defs>
</svg>
