<svg width="100" height="101" viewBox="0 0 100 101" fill="none" xmlns="http://www.w3.org/2000/svg">
<path d="M50 97.2548C53.3988 97.2548 56.5932 96.0784 59.5832 93.7255C62.5735 91.3726 65.2043 88.0719 67.4755 83.8233C69.7467 79.5751 71.5277 74.5833 72.8184 68.8479C74.1094 63.1128 74.7549 56.8628 74.7549 50.098C74.7549 43.3333 74.1176 37.0669 72.843 31.299C71.5686 25.531 69.7957 20.5147 67.5242 16.25C65.253 11.9853 62.6224 8.67647 59.6324 6.32354C56.642 3.97059 53.4312 2.79412 50 2.79412C46.5686 2.79412 43.3578 3.97059 40.3676 6.32354C37.3774 8.67647 34.7549 11.9853 32.5 16.25C30.2451 20.5147 28.4722 25.531 27.1813 31.299C25.8905 37.0669 25.2451 43.3333 25.2451 50.098C25.2451 56.8628 25.8905 63.1128 27.1813 68.8479C28.4722 74.5833 30.2532 79.5751 32.5245 83.8233C34.7957 88.0719 37.4264 91.3726 40.4166 93.7255C43.4068 96.0784 46.6012 97.2548 50 97.2548ZM50 8.72547C52.3855 8.72547 54.673 9.82841 56.8626 12.0343C59.0521 14.2402 60.9965 17.2549 62.6958 21.0784C64.3951 24.9019 65.735 29.3055 66.7155 34.2892C67.696 39.2728 68.1863 44.5424 68.1863 50.098C68.1863 55.5882 67.696 60.8006 66.7155 65.7352C65.735 70.6698 64.3951 75.0571 62.6958 78.8971C60.9965 82.7368 59.0521 85.7596 56.8626 87.9655C54.673 90.1715 52.3855 91.2744 50 91.2744C47.6143 91.2744 45.3268 90.1715 43.1372 87.9655C40.9477 85.7596 39.0032 82.7368 37.3039 78.8971C35.6045 75.0571 34.2647 70.6698 33.2843 65.7352C32.3039 60.8006 31.8137 55.5882 31.8137 50.098C31.8137 44.5424 32.3039 39.2728 33.2843 34.2892C34.2647 29.3055 35.6045 24.9019 37.3039 21.0784C39.0032 17.2549 40.9477 14.2402 43.1372 12.0343C45.3268 9.82841 47.6143 8.72547 50 8.72547ZM46.8137 3.48039V96.3237H53.2354V3.48039H46.8137ZM50 68.4312C44.9673 68.4312 40.196 68.8479 35.6863 69.6811C31.1764 70.5147 27.116 71.7075 23.5049 73.2596C19.8938 74.812 16.9444 76.6339 14.6568 78.7254L19.6078 82.7938C21.7647 81.0945 24.3545 79.6485 27.3774 78.4559C30.4003 77.2629 33.8153 76.3642 37.6225 75.7598C41.4297 75.1552 45.5555 74.8528 50 74.8528C54.4445 74.8528 58.5704 75.1552 62.3776 75.7598C66.1848 76.3642 69.5998 77.2629 72.6226 78.4559C75.6454 79.6485 78.2352 81.0945 80.3919 82.7938L85.3433 78.7254C83.0557 76.6339 80.1063 74.812 76.4952 73.2596C72.8841 71.7075 68.8236 70.5147 64.3136 69.6811C59.8037 68.8479 55.0325 68.4312 50 68.4312ZM95.2449 46.7647H4.7549V53.1862H95.2449V46.7647ZM50 31.8137C55.0325 31.8137 59.8037 31.397 64.3136 30.5637C68.8236 29.7303 72.8841 28.5375 76.4952 26.9853C80.1063 25.433 83.0557 23.6111 85.3433 21.5196L80.3919 17.4509C78.2352 19.1503 75.6454 20.5964 72.6226 21.7892C69.5998 22.982 66.1848 23.8807 62.3776 24.4853C58.5704 25.0898 54.4445 25.3921 50 25.3921C45.5555 25.3921 41.4297 25.0898 37.6225 24.4853C33.8153 23.8807 30.4003 22.982 27.3774 21.7892C24.3545 20.5964 21.7647 19.1503 19.6078 17.4509L14.6568 21.5196C16.9444 23.6111 19.8938 25.433 23.5049 26.9853C27.116 28.5375 31.1764 29.7303 35.6863 30.5637C40.196 31.397 44.9673 31.8137 50 31.8137ZM50 100C56.8302 100 63.2599 98.6927 69.2891 96.0782C75.3186 93.464 80.6372 89.8529 85.2449 85.2449C89.8529 80.6372 93.464 75.3186 96.0782 69.2891C98.6927 63.2599 100 56.8302 100 50C100 43.1699 98.6927 36.7401 96.0782 30.7107C93.464 24.6813 89.8529 19.3627 85.2449 14.7549C80.6372 10.147 75.3104 6.53594 69.2645 3.92156C63.2189 1.30719 56.781 0 49.9509 0C43.1209 0 36.6911 1.30719 30.6617 3.92156C24.6323 6.53594 19.3219 10.147 14.7304 14.7549C10.1389 19.3627 6.53594 24.6813 3.92156 30.7107C1.30719 36.7401 0 43.1699 0 50C0 56.8302 1.30719 63.2599 3.92156 69.2891C6.53594 75.3186 10.147 80.6372 14.7549 85.2449C19.3627 89.8529 24.6813 93.464 30.7107 96.0782C36.7401 98.6927 43.1699 100 50 100ZM50 93.3335C44.0849 93.3335 38.513 92.1977 33.2843 89.9262C28.0555 87.655 23.4477 84.5259 19.4607 80.539C15.4738 76.5521 12.3448 71.9443 10.0735 66.7155C7.80227 61.4868 6.66663 55.9149 6.66663 50C6.66663 44.0849 7.80227 38.513 10.0735 33.2843C12.3448 28.0555 15.4657 23.4477 19.4362 19.4607C23.4068 15.4738 28.0065 12.3448 33.2352 10.0735C38.464 7.80227 44.0359 6.66663 49.9509 6.66663C55.8661 6.66663 61.4379 7.80227 66.6663 10.0735C71.8954 12.3448 76.5115 15.4738 80.5144 19.4607C84.5177 23.4477 87.655 28.0555 89.9262 33.2843C92.1977 38.513 93.3335 44.0849 93.3335 50C93.3335 55.9149 92.1977 61.4868 89.9262 66.7155C87.655 71.9443 84.5259 76.5521 80.539 80.539C76.5521 84.5259 71.9443 87.655 66.7155 89.9262C61.4868 92.1977 55.9149 93.3335 50 93.3335Z" fill="black" fill-opacity="0.85"/>
</svg>
