<svg width="100" height="89" viewBox="0 0 100 89" fill="none" xmlns="http://www.w3.org/2000/svg">
<g clip-path="url(#clip0_5_55)">
<path d="M0 33.5144C0 39.6064 1.05982 45.4 3.17947 50.8952C5.29911 56.3906 8.32156 61.2581 12.2468 65.4975C13.1575 66.5023 14.1859 67.0127 15.3321 67.0284C16.4783 67.0442 17.4282 66.6123 18.1818 65.7329C18.9355 64.8849 19.226 63.9429 19.0533 62.9068C18.8805 61.8705 18.3702 60.8656 17.5224 59.8922C14.3508 56.375 11.9171 52.3634 10.2214 47.8573C8.52569 43.351 7.67784 38.5701 7.67784 33.5144C7.67784 28.4586 8.52569 23.6776 10.2214 19.1714C11.9171 14.6652 14.3508 10.6536 17.5224 7.13656C18.3702 6.16307 18.8805 5.1582 19.0533 4.12194C19.226 3.08567 18.9355 2.14361 18.1818 1.29575C17.4282 0.416491 16.4783 -0.0152879 15.3321 0.000413187C14.1859 0.0161143 13.1575 0.526398 12.2468 1.53126C9.64047 4.35744 7.42662 7.47411 5.60528 10.8813C3.78396 14.2884 2.39441 17.8918 1.43665 21.6915C0.478883 25.4911 0 29.4321 0 33.5144ZM19.8305 33.5144C19.8305 36.9686 20.3957 40.2737 21.5262 43.4296C22.6566 46.5855 24.2424 49.4353 26.2836 51.979C27.1 53.0466 28.1127 53.5883 29.3217 53.604C30.5307 53.6195 31.5278 53.1876 32.3128 52.3085C33.0664 51.4605 33.3412 50.5341 33.1371 49.5292C32.933 48.5245 32.4541 47.504 31.7005 46.4677C30.2874 44.7092 29.2354 42.723 28.5445 40.5092C27.8537 38.2953 27.5082 35.9637 27.5082 33.5144C27.5082 31.065 27.8694 28.7412 28.5916 26.5431C29.3139 24.3449 30.3502 22.3509 31.7005 20.561C32.4541 19.5247 32.933 18.5041 33.1371 17.4993C33.3412 16.4944 33.0664 15.568 32.3128 14.7201C31.5278 13.8409 30.5307 13.4091 29.3217 13.4248C28.1127 13.4405 27.1 13.9822 26.2836 15.0499C24.2424 17.5935 22.6566 20.4432 21.5262 23.5991C20.3957 26.755 19.8305 30.0601 19.8305 33.5144ZM41.545 33.5144C41.545 35.2101 41.9925 36.7409 42.8875 38.1069C43.7824 39.4729 44.9521 40.4856 46.3967 41.1451V83.4911C46.3967 84.684 46.7342 85.6574 47.4094 86.4111C48.0846 87.1649 48.9561 87.5417 50.0236 87.5417C51.1227 87.5417 51.9941 87.1727 52.6379 86.4348C53.2817 85.6968 53.6035 84.7155 53.6035 83.4911V41.1451C55.0165 40.4856 56.1783 39.4729 57.0889 38.1069C57.9996 36.7409 58.4549 35.2101 58.4549 33.5144C58.4549 31.9443 58.0782 30.5155 57.3248 29.228C56.571 27.9405 55.5583 26.9121 54.2865 26.1427C53.0148 25.3733 51.5938 24.9887 50.0236 24.9887C48.4221 24.9887 46.9855 25.3733 45.7137 26.1427C44.4419 26.9121 43.4292 27.9405 42.6755 29.228C41.9219 30.5155 41.545 31.9443 41.545 33.5144ZM67.6873 52.3085C68.4722 53.1876 69.4692 53.6195 70.6783 53.604C71.8873 53.5883 72.9001 53.0466 73.7165 51.979C75.7578 49.4353 77.3435 46.5855 78.4738 43.4296C79.6044 40.2737 80.1697 36.9686 80.1697 33.5144C80.1697 30.0601 79.6044 26.755 78.4738 23.5991C77.3435 20.4432 75.7578 17.5935 73.7165 15.0499C72.9001 13.9822 71.8873 13.4405 70.6783 13.4248C69.4692 13.4091 68.4722 13.8409 67.6873 14.7201C66.9336 15.568 66.6588 16.4944 66.863 17.4993C67.0672 18.5041 67.5461 19.5247 68.2999 20.561C69.6501 22.3509 70.6863 24.3449 71.4085 26.5431C72.1307 28.7412 72.4918 31.065 72.4918 33.5144C72.4918 35.9637 72.1465 38.2953 71.4558 40.5092C70.7648 42.723 69.7128 44.7092 68.2999 46.4677C67.5461 47.504 67.0672 48.5245 66.863 49.5292C66.6588 50.5341 66.9336 51.4605 67.6873 52.3085ZM81.8183 65.7329C82.572 66.6123 83.5298 67.0442 84.6916 67.0284C85.8534 67.0127 86.874 66.5023 87.7535 65.4975C91.6787 61.2581 94.701 56.3906 96.8204 50.8952C98.9401 45.4 100 39.6064 100 33.5144C100 29.4321 99.5212 25.4911 98.5636 21.6915C97.6057 17.8918 96.2161 14.2884 94.3948 10.8813C92.5735 7.47411 90.3597 4.35744 87.7535 1.53126C86.874 0.526398 85.8534 0.0161143 84.6916 0.000413187C83.5298 -0.0152879 82.572 0.416491 81.8183 1.29575C81.0646 2.14361 80.774 3.08567 80.9467 4.12194C81.1194 5.1582 81.6297 6.16307 82.4777 7.13656C85.6492 10.6536 88.0829 14.6652 89.7788 19.1714C91.4744 23.6776 92.3222 28.4586 92.3222 33.5144C92.3222 38.5701 91.4744 43.351 89.7788 47.8573C88.0829 52.3634 85.6492 56.375 82.4777 59.8922C81.6297 60.8656 81.1194 61.8705 80.9467 62.9068C80.774 63.9429 81.0646 64.8849 81.8183 65.7329Z" fill="#28CD41"/>
</g>
<defs>
<clipPath id="clip0_5_55">
<rect width="100" height="88.2725" fill="white"/>
</clipPath>
</defs>
</svg>
