<svg width="100" height="120" viewBox="0 0 100 120" fill="none" xmlns="http://www.w3.org/2000/svg">
<g clip-path="url(#clip0_5_34)">
<path d="M50 109.902C56.8302 109.902 63.2599 108.595 69.2891 105.98C75.3186 103.366 80.6372 99.7547 85.2449 95.147C89.8529 90.539 93.464 85.2204 96.0782 79.1912C98.6927 73.1617 100 66.7319 100 59.9019C100 53.0718 98.6927 46.6421 96.0782 40.6127C93.464 34.5833 89.8529 29.2647 85.2449 24.6568C80.6372 20.049 75.3104 16.4379 69.2645 13.8235C63.2189 11.2092 56.781 9.90197 49.9509 9.90197C43.1209 9.90197 36.6911 11.2092 30.6617 13.8235C24.6323 16.4379 19.3219 20.049 14.7304 24.6568C10.1389 29.2647 6.53594 34.5833 3.92156 40.6127C1.30719 46.6421 0 53.0718 0 59.9019C0 66.7319 1.30719 73.1617 3.92156 79.1912C6.53594 85.2204 10.147 90.539 14.7549 95.147C19.3627 99.7547 24.6813 103.366 30.7107 105.98C36.7401 108.595 43.1699 109.902 50 109.902ZM50 67.8429C47.7777 67.8429 45.9068 67.0669 44.3872 65.5148C42.8676 63.9624 42.1078 62.1079 42.1078 59.9511C42.1078 58.4151 42.5163 57.018 43.3333 55.7597C44.1503 54.5015 45.2287 53.513 46.5686 52.7942V28.4804C46.5686 27.5326 46.8954 26.732 47.549 26.0784C48.2026 25.4248 49.0032 25.098 49.9509 25.098C50.9312 25.098 51.7482 25.4248 52.4021 26.0784C53.0557 26.732 53.3825 27.5326 53.3825 28.4804V52.8428C54.7548 53.4967 55.8496 54.4526 56.6668 55.7105C57.4836 56.9688 57.8921 58.3823 57.8921 59.9511C57.8921 62.1407 57.1241 64.0033 55.5881 65.5389C54.0521 67.0749 52.1894 67.8429 50 67.8429ZM44.7058 12.549H55.196V5.39216C55.196 3.92157 54.6896 2.65523 53.6766 1.59314C52.6633 0.531045 51.4214 0 49.9509 0C48.513 0 47.2793 0.531045 46.25 1.59314C45.2205 2.65523 44.7058 3.92157 44.7058 5.39216V12.549ZM80.539 23.5294L87.7451 31.0784L93.2351 25.5392C94.4117 24.3627 95 23.0392 95 21.5686C95 20.1961 94.5179 19.0278 93.5538 18.0637C92.5897 17.0997 91.3887 16.6176 89.9508 16.6176C88.3823 16.6176 87.0424 17.1568 85.9311 18.2353L80.539 23.5294Z" fill="black" fill-opacity="0.85"/>
</g>
<defs>
<clipPath id="clip0_5_34">
<rect width="100" height="119.853" fill="white"/>
</clipPath>
</defs>
</svg>
