<svg width="100" height="101" viewBox="0 0 100 101" fill="none" xmlns="http://www.w3.org/2000/svg">
<path d="M50 100C56.8302 100 63.2599 98.6927 69.2891 96.0782C75.3186 93.464 80.6372 89.8529 85.2449 85.2449C89.8529 80.6372 93.464 75.3186 96.0782 69.2891C98.6927 63.2599 100 56.8302 100 50C100 43.1699 98.6927 36.7401 96.0782 30.7107C93.464 24.6813 89.8611 19.3627 85.2695 14.7549C80.6779 10.147 75.3675 6.53594 69.3383 3.92156C63.3087 1.30719 56.8789 0 50.0489 0C48.7418 0 47.7696 0.367647 47.1323 1.10294C46.4951 1.83823 46.1764 2.84313 46.1764 4.11764V23.0882C46.1764 24.1667 46.5114 25.0735 47.1813 25.8088C47.8512 26.5441 48.7091 26.9117 49.7548 26.9117C50.8334 26.9117 51.7076 26.5441 52.3775 25.8088C53.0475 25.0735 53.3825 24.1667 53.3825 23.0882V4.0196L49.9509 8.33334C55.7681 8.33334 61.193 9.40359 66.2256 11.5441C71.2583 13.6846 75.6782 16.6585 79.4854 20.4657C83.2926 24.2728 86.2664 28.7009 88.4067 33.7499C90.5474 38.799 91.6178 44.2156 91.6178 50C91.6178 55.7844 90.5474 61.193 88.4067 66.2256C86.2664 71.2583 83.2926 75.6782 79.4854 79.4854C75.6782 83.2926 71.2583 86.2746 66.2256 88.4313C61.193 90.5881 55.7844 91.6665 50 91.6665C44.2156 91.6665 38.799 90.5881 33.7499 88.4313C28.7009 86.2746 24.2728 83.2926 20.4657 79.4854C16.6585 75.6782 13.6846 71.2583 11.5441 66.2256C9.40359 61.193 8.33334 55.7844 8.33334 50C8.366 44.8366 9.24835 39.9591 10.9804 35.3676C12.7124 30.7761 15.1307 26.683 18.2353 23.0882C18.9542 22.1405 19.3301 21.1274 19.3627 20.049C19.3954 18.9706 19.0033 18.0065 18.1863 17.1568C17.3693 16.3072 16.3644 15.9232 15.1715 16.0049C13.9788 16.0866 12.9412 16.6667 12.0588 17.7451C8.33331 22.1242 5.39214 27.067 3.23529 32.5735C1.07843 38.08 0 43.8889 0 50C0 56.8302 1.30719 63.2599 3.92156 69.2891C6.53594 75.3186 10.147 80.6372 14.7549 85.2449C19.3627 89.8529 24.6813 93.464 30.7107 96.0782C36.7401 98.6927 43.1699 100 50 100Z" fill="black" fill-opacity="0.85"/>
<path d="M57.8429 57.0588C59.1503 55.6861 59.9347 54.2237 60.1961 52.6717C60.4574 51.1193 60.2531 49.6078 59.5832 48.1372C58.9132 46.6666 57.8103 45.3921 56.2743 44.3136L30.3431 26.1764C29.5261 25.6209 28.7581 25.4738 28.0392 25.7352C27.3202 25.9967 26.8382 26.4787 26.5931 27.1813C26.348 27.8839 26.5032 28.6437 27.0588 29.4607L45.147 55.3923C46.2254 56.9607 47.5 58.0799 48.9705 58.7499C50.4411 59.4198 51.9607 59.6241 53.5295 59.3628C55.098 59.1011 56.5358 58.3331 57.8429 57.0588Z" fill="black" fill-opacity="0.85"/>
</svg>
